<svg xmlns="http://www.w3.org/2000/svg" viewBox="0 0 350 100" width="400" height="100">
    <path fill="#faa393" d="M55.1 25.7c-.5-6-2.9-10.9-7.1-14.6-4.3-3.7-9.8-5.6-16.5-5.6-4.5 0-8.6.9-12.1 2.6-3.5 1.7-6.3 4.1-8.3 7.1-2 3-3 6.4-3 10.3 0 2.5.5 4.7 1.4 6.7.9 2 2.3 3.8 4 5.4 1.7 1.6 3.7 2.9 6.1 4.1 2.4 1.2 4.9 2.2 7.8 3.1l10.3 3.1c3.5 1.1 6.8 2.4 9.7 3.8 3 1.5 5.6 3.2 7.8 5.2s3.9 4.3 5.2 7c1.2 2.7 1.9 5.8 1.9 9.3 0 5.1-1.3 9.7-3.8 13.7s-6.2 7.2-10.9 9.5-10.2 3.5-16.6 3.5c-6 0-11.3-1.1-15.8-3.2s-8-5.1-10.6-8.8c-2.8-3.7-4.3-8-4.6-12.9h5.9c.3 4 1.5 7.5 3.7 10.4 2.2 2.9 5.1 5.2 8.7 6.7 3.6 1.6 7.8 2.4 12.5 2.4 5 0 9.5-.9 13.3-2.7 3.8-1.8 6.9-4.3 9-7.5 2.2-3.2 3.3-6.9 3.3-11.1 0-3.4-.8-6.3-2.3-8.8-1.6-2.4-3.9-4.5-6.9-6.3-3-1.8-6.8-3.3-11.3-4.7l-11-3.4c-7.3-2.3-12.9-5.4-16.8-9.4-3.9-4-5.8-8.9-5.8-14.9 0-5 1.3-9.4 3.8-13.3 2.6-3.9 6.1-6.9 10.5-9.1 4.5-2.2 9.4-3.3 15-3.3s10.5 1.1 14.8 3.3c4.3 2.2 7.7 5.3 10.2 9.1 2.5 3.9 3.9 8.3 4.2 13.2h-5.7z"/>
    <path fill="#f99386" d="M72 98v-96h9v44h56v-44h9v96h-9v-44h-56v44h-9z"/>
    <path fill="#f78479" d="M174 2v96h-14v-96h14z"/>
    <path fill="#f6746c" d="M188 98v-96h64v18h-44v22h39v18h-39v38h-20z"/>
    <path fill="#f4645f" d="M266 20v-18h84v18h-30v78h-24v-78h-30z"/>
</svg>
