<svg xmlns="http://www.w3.org/2000/svg" viewBox="0 0 1057 298"><g fill="none" fill-rule="evenodd"><g fill="#2b79c1"><path d="M119 213.624v-74.248c0-6.837-5.6-12.376-12.502-12.376C99.595 127 94 132.539 94 139.376v74.248C94 220.461 99.595 226 106.498 226 113.4 226 119 220.461 119 213.624m38-.956v-47.337c0-6.812-5.596-12.331-12.5-12.331s-12.5 5.519-12.5 12.331v47.337c0 6.813 5.596 12.332 12.5 12.332s12.5-5.52 12.5-12.332"/><path d="M118.501 0C85.818-.008 56.114 13.338 34.71 34.859 13.283 56.357-.006 86.19 0 119.018c-.006 22.579 6.29 43.784 17.201 61.784a119.266 119.266 0 0 0 38.458 39.119v65.72c0 6.825 5.51 12.359 12.305 12.359s12.303-5.534 12.303-12.358V106.396c0-6.826-5.508-12.356-12.303-12.356-6.795 0-12.305 5.53-12.305 12.356v82.619c-6.768-6.133-12.675-13.205-17.433-21.06-8.644-14.278-13.614-30.974-13.616-48.937.006-26.078 10.49-49.575 27.5-66.68 17.03-17.085 40.427-27.615 66.391-27.623 25.965.008 49.36 10.538 66.389 27.624 17.01 17.104 27.494 40.6 27.501 66.679-.003 15.5-3.701 30.042-10.262 42.92a94.699 94.699 0 0 1-27.45 32.648c-5.442 4.093-6.55 11.834-2.481 17.301 4.072 5.464 11.785 6.582 17.225 2.492a119.383 119.383 0 0 0 34.61-41.177c8.29-16.25 12.968-34.713 12.967-54.184.006-32.827-13.283-62.66-34.708-84.16C180.888 13.339 151.183-.007 118.502 0z"/></g><path fill="#2b4964" d="M295.209 68.098v62.73h19.924c4.274 0 8.301-.822 12.082-2.466 3.781-1.644 7.102-3.88 9.962-6.707 2.86-2.827 5.13-6.148 6.806-9.962 1.677-3.813 2.515-7.89 2.515-12.23 0-4.406-.838-8.515-2.515-12.33-1.677-3.813-3.945-7.134-6.806-9.961-2.86-2.828-6.197-5.047-10.01-6.658-3.815-1.61-7.826-2.416-12.034-2.416h-19.924zm-20.91 126.447V57.643c0-1.447.263-2.811.789-4.094a10.122 10.122 0 0 1 2.22-3.353 10.257 10.257 0 0 1 3.303-2.22c1.25-.525 2.63-.788 4.143-.788h30.379c4.734 0 9.32.624 13.76 1.874a51.902 51.902 0 0 1 12.476 5.326 54.924 54.924 0 0 1 10.652 8.236 51.29 51.29 0 0 1 8.236 10.603c2.269 3.88 4.044 8.038 5.326 12.477 1.283 4.438 1.924 9.025 1.924 13.759 0 14.335-5.162 26.664-15.486 36.987-10.192 10.192-22.488 15.288-36.888 15.288h-19.924v42.807c0 2.893-1.02 5.359-3.058 7.397-2.038 2.039-4.504 3.058-7.397 3.058-2.893 0-5.36-1.02-7.398-3.058-2.038-2.038-3.057-4.504-3.057-7.397zM409.327 74.903c0 3.354-1.183 6.214-3.55 8.581-2.368 2.368-5.228 3.551-8.582 3.551-3.353 0-6.214-1.183-8.58-3.55-2.368-2.368-3.551-5.228-3.551-8.582 0-3.353 1.183-6.214 3.55-8.58 2.367-2.368 5.228-3.552 8.581-3.552 3.354 0 6.214 1.184 8.581 3.551 2.368 2.367 3.551 5.228 3.551 8.581zm-22.39 119.74v-89.755c0-2.894 1.003-5.343 3.009-7.348 2.005-2.006 4.422-3.009 7.25-3.009 2.827 0 5.243 1.003 7.249 3.009 2.005 2.005 3.041 4.454 3.107 7.348v89.756c-.066 2.893-1.102 5.342-3.107 7.348-2.006 2.005-4.422 3.008-7.25 3.008-2.827 0-5.244-1.003-7.25-3.008-2.005-2.006-3.007-4.455-3.007-7.348zm62.336-89.953c8.746-6.772 19.037-10.159 30.873-10.159 6.904 0 13.463 1.348 19.677 4.044 6.214 2.696 11.688 6.362 16.422 10.998 4.735 4.636 8.483 10.093 11.244 16.373 2.762 6.28 4.143 12.97 4.143 20.072v48.626c0 2.893-1.003 5.342-3.008 7.348-2.006 2.005-4.423 3.008-7.25 3.008-2.893 0-5.343-1.003-7.348-3.008-2.006-2.006-3.008-4.455-3.008-7.348v-48.626c0-4.209-.822-8.187-2.466-11.935-1.644-3.748-3.863-7.02-6.658-9.814-2.795-2.795-6.066-5.014-9.814-6.658-3.748-1.644-7.726-2.465-11.935-2.465-4.274 0-8.268.805-11.983 2.416a31.43 31.43 0 0 0-9.814 6.658c-2.828 2.827-5.047 6.115-6.658 9.863-1.611 3.748-2.417 7.726-2.417 11.935v48.626c0 2.893-1.002 5.342-3.008 7.348-2.005 2.005-4.422 3.008-7.25 3.008-2.893 0-5.342-1.003-7.348-3.008-2.005-2.006-3.008-4.455-3.008-7.348v-89.756c0-2.828 1.003-5.26 3.008-7.3 2.006-2.038 4.455-3.057 7.349-3.057 2.827 0 5.244 1.02 7.25 3.058 2.005 2.038 3.007 4.405 3.007 7.101zm153.079 10.456c-4.866 0-9.403.92-13.612 2.761-4.208 1.841-7.857 4.324-10.948 7.447-3.09 3.123-5.54 6.79-7.348 10.998-1.808 4.208-2.713 8.68-2.713 13.414s.905 9.205 2.713 13.414c1.808 4.208 4.257 7.874 7.348 10.997 3.09 3.124 6.74 5.606 10.948 7.447 4.209 1.841 8.746 2.762 13.612 2.762 4.8 0 9.304-.92 13.512-2.762 4.209-1.841 7.874-4.34 10.998-7.496 3.123-3.156 5.589-6.822 7.397-10.998 1.809-4.175 2.713-8.63 2.713-13.364 0-4.735-.904-9.19-2.713-13.365-1.808-4.176-4.274-7.841-7.397-10.998-3.124-3.156-6.79-5.655-10.998-7.496-4.208-1.84-8.712-2.761-13.512-2.761zm34.62 77.722c-9.864 8.088-21.404 12.132-34.62 12.132-15.256 0-28.275-5.392-39.059-16.176-10.784-10.784-16.176-23.803-16.176-39.058 0-15.256 5.392-28.275 16.176-39.059 10.784-10.784 23.803-16.176 39.059-16.176 15.123 0 28.143 5.392 39.058 16.176 10.784 10.784 16.176 23.803 16.176 39.059v54.84c0 4.734-.723 9.205-2.17 13.414-1.447 4.208-3.452 8.071-6.017 11.589-2.564 3.518-5.589 6.69-9.074 9.518a56.973 56.973 0 0 1-11.293 7.15 63.113 63.113 0 0 1-12.675 4.489 56.726 56.726 0 0 1-13.216 1.578c-5.26 0-10.423-.674-15.486-2.022a58.7 58.7 0 0 1-14.4-5.968c-4.537-2.63-8.696-5.885-12.477-9.764a59.58 59.58 0 0 1-9.617-13.02c-1.052-1.512-1.578-3.353-1.578-5.523 0-2.96.986-5.408 2.959-7.348 1.973-1.94 4.438-2.91 7.397-2.91 1.973 0 3.6.46 4.883 1.38 1.282.921 3.04 2.96 5.277 6.116 2.235 3.156 4.208 5.556 5.918 7.2 7.496 7.496 16.537 11.244 27.124 11.244 10.652 0 19.66-3.682 27.025-11.046 4.537-5.524 6.806-10.883 6.806-16.078v-11.737zm56.714-124.77v62.73h19.923c4.274 0 8.302-.822 12.083-2.466 3.78-1.644 7.101-3.88 9.962-6.707 2.86-2.827 5.129-6.148 6.805-9.962 1.677-3.813 2.516-7.89 2.516-12.23 0-4.406-.839-8.515-2.516-12.33-1.676-3.813-3.945-7.134-6.805-9.961-2.86-2.828-6.198-5.047-10.011-6.658-3.814-1.61-7.825-2.416-12.034-2.416h-19.923zm-20.91 126.447V57.643c0-1.447.262-2.811.788-4.094a10.122 10.122 0 0 1 2.22-3.353 10.257 10.257 0 0 1 3.304-2.22c1.25-.525 2.63-.788 4.142-.788h30.38c4.734 0 9.32.624 13.759 1.874a51.902 51.902 0 0 1 12.477 5.326 54.924 54.924 0 0 1 10.652 8.236 51.29 51.29 0 0 1 8.236 10.603c2.268 3.88 4.044 8.038 5.326 12.477 1.282 4.438 1.923 9.025 1.923 13.759 0 14.335-5.161 26.664-15.485 36.987-10.192 10.192-22.488 15.288-36.889 15.288h-19.923v42.807c0 2.893-1.02 5.359-3.058 7.397-2.039 2.039-4.504 3.058-7.398 3.058-2.893 0-5.359-1.02-7.397-3.058-2.038-2.038-3.058-4.504-3.058-7.397zM807.803 74.903c0 3.354-1.184 6.214-3.551 8.581-2.367 2.368-5.228 3.551-8.581 3.551-3.354 0-6.214-1.183-8.581-3.55-2.367-2.368-3.551-5.228-3.551-8.582 0-3.353 1.184-6.214 3.55-8.58 2.368-2.368 5.228-3.552 8.582-3.552 3.353 0 6.214 1.184 8.58 3.551 2.368 2.367 3.552 5.228 3.552 8.581zm-22.39 119.74v-89.755c0-2.894 1.003-5.343 3.008-7.348 2.006-2.006 4.422-3.009 7.25-3.009 2.827 0 5.244 1.003 7.25 3.009 2.005 2.005 3.04 4.454 3.106 7.348v89.756c-.065 2.893-1.101 5.342-3.107 7.348-2.005 2.005-4.422 3.008-7.25 3.008-2.827 0-5.243-1.003-7.249-3.008-2.005-2.006-3.008-4.455-3.008-7.348zm62.336-89.953c8.745-6.772 19.036-10.159 30.872-10.159 6.904 0 13.463 1.348 19.677 4.044 6.214 2.696 11.688 6.362 16.423 10.998 4.734 4.636 8.482 10.093 11.244 16.373 2.762 6.28 4.142 12.97 4.142 20.072v48.626c0 2.893-1.002 5.342-3.008 7.348-2.005 2.005-4.422 3.008-7.25 3.008-2.893 0-5.342-1.003-7.348-3.008-2.005-2.006-3.008-4.455-3.008-7.348v-48.626c0-4.209-.822-8.187-2.466-11.935-1.644-3.748-3.863-7.02-6.657-9.814-2.795-2.795-6.066-5.014-9.814-6.658-3.748-1.644-7.727-2.465-11.935-2.465-4.274 0-8.269.805-11.984 2.416a31.43 31.43 0 0 0-9.814 6.658c-2.827 2.827-5.046 6.115-6.657 9.863-1.611 3.748-2.417 7.726-2.417 11.935v48.626c0 2.893-1.003 5.342-3.008 7.348-2.006 2.005-4.422 3.008-7.25 3.008-2.893 0-5.342-1.003-7.348-3.008-2.005-2.006-3.008-4.455-3.008-7.348v-89.756c0-2.828 1.003-5.26 3.008-7.3 2.006-2.038 4.455-3.057 7.348-3.057 2.828 0 5.244 1.02 7.25 3.058s3.008 4.405 3.008 7.101zm153.078 10.456c-4.866 0-9.403.92-13.611 2.761-4.209 1.841-7.858 4.324-10.948 7.447-3.091 3.123-5.54 6.79-7.349 10.998-1.808 4.208-2.712 8.68-2.712 13.414s.904 9.205 2.712 13.414c1.809 4.208 4.258 7.874 7.349 10.997 3.09 3.124 6.74 5.606 10.948 7.447 4.208 1.841 8.745 2.762 13.611 2.762 4.8 0 9.305-.92 13.513-2.762 4.208-1.841 7.874-4.34 10.997-7.496 3.124-3.156 5.59-6.822 7.398-10.998 1.808-4.175 2.712-8.63 2.712-13.364 0-4.735-.904-9.19-2.712-13.365s-4.274-7.841-7.398-10.998c-3.123-3.156-6.789-5.655-10.997-7.496-4.209-1.84-8.713-2.761-13.513-2.761zm34.62 77.722c-9.863 8.088-21.403 12.132-34.62 12.132-15.255 0-28.275-5.392-39.058-16.176-10.784-10.784-16.176-23.803-16.176-39.058 0-15.256 5.392-28.275 16.176-39.059 10.783-10.784 23.803-16.176 39.058-16.176 15.124 0 28.143 5.392 39.059 16.176 10.784 10.784 16.175 23.803 16.175 39.059v54.84c0 4.734-.723 9.205-2.17 13.414-1.446 4.208-3.452 8.071-6.016 11.589-2.564 3.518-5.59 6.69-9.074 9.518a56.973 56.973 0 0 1-11.294 7.15 63.113 63.113 0 0 1-12.674 4.489 56.726 56.726 0 0 1-13.217 1.578c-5.26 0-10.422-.674-15.485-2.022a58.7 58.7 0 0 1-14.4-5.968c-4.538-2.63-8.697-5.885-12.478-9.764a59.58 59.58 0 0 1-9.616-13.02c-1.052-1.512-1.578-3.353-1.578-5.523 0-2.96.986-5.408 2.959-7.348 1.972-1.94 4.438-2.91 7.397-2.91 1.973 0 3.6.46 4.882 1.38 1.283.921 3.042 2.96 5.277 6.116 2.236 3.156 4.208 5.556 5.918 7.2 7.496 7.496 16.538 11.244 27.124 11.244 10.653 0 19.66-3.682 27.026-11.046 4.537-5.524 6.805-10.883 6.805-16.078v-11.737z"/></g></svg>