<?xml version="1.0" standalone="no"?>
<!DOCTYPE svg PUBLIC "-//W3C//DTD SVG 20010904//EN"
 "http://www.w3.org/TR/2001/REC-SVG-20010904/DTD/svg10.dtd">
<svg version="1.0" xmlns="http://www.w3.org/2000/svg"
 width="1024.000000pt" height="1024.000000pt" viewBox="0 0 1024.000000 1024.000000"
 preserveAspectRatio="xMidYMid meet">
<metadata>
Created by potrace 1.11, written by Peter Selinger 2001-2013
</metadata>
<g transform="translate(0.000000,1024.000000) scale(0.100000,-0.100000)"
fill="#000000" stroke="none">
<path d="M5040 8587 c-42 -8 -264 -65 -655 -167 -88 -23 -167 -44 -175 -46 -8
-1 -85 -22 -170 -44 -85 -23 -231 -61 -325 -85 -93 -24 -195 -50 -227 -59 -31
-8 -67 -18 -80 -20 -12 -3 -126 -33 -253 -66 -126 -34 -237 -63 -245 -65 -18
-4 -259 -65 -280 -71 -8 -2 -42 -11 -75 -19 -220 -56 -319 -110 -383 -209 -15
-22 -29 -43 -32 -46 -16 -15 -46 -101 -57 -160 -3 -19 -6 -1156 -6 -2526 l0
-2492 -558 0 c-412 0 -568 -3 -596 -12 -55 -18 -100 -55 -125 -103 -21 -40
-22 -54 -22 -317 0 -264 1 -277 22 -317 27 -51 56 -80 102 -101 32 -15 243
-17 2345 -18 l2310 -1 0 3281 c-1 3467 1 3337 -44 3421 -35 66 -120 165 -141
165 -4 0 -13 6 -19 14 -7 8 -42 26 -78 41 -72 29 -161 37 -233 22z m-586
-3053 c56 -21 97 -56 139 -116 66 -96 94 -197 90 -318 -7 -183 -106 -350 -240
-401 -85 -32 -217 4 -288 79 -106 113 -148 330 -96 501 64 211 230 319 395
255z"/>
<path d="M5990 7291 l0 -436 650 1 650 1 0 -21 c1 -12 2 -1184 3 -2606 l2
-2585 980 -1 c610 -1 998 2 1028 8 57 12 109 53 140 112 20 39 21 55 21 316
l0 276 -26 44 c-14 25 -37 54 -50 65 -52 45 -80 47 -668 47 l-557 0 0 2286 c0
1258 -3 2310 -6 2339 -10 79 -28 152 -38 159 -5 3 -9 11 -9 19 0 16 -66 133
-87 153 -7 8 -25 29 -39 48 -35 46 -136 121 -204 152 -128 58 -142 59 -1002
59 l-788 0 0 -436z"/>
</g>
</svg>
